<svg xmlns="http://www.w3.org/2000/svg" xml:space="preserve" viewBox="43.38 0.14 425.32 512.02"><path d="M136.8 459.6c-2.3-10.8-6.9-32.5-7.4-32.5-96.5-57.7-85.1-157.6-53.1-214.7 6.9 71.9 134.2 121.6 60 209.6-.6 1.1 3.4 14.8 6.9 27.4 14.8-25.1 37.1-55.4 36-58.2-91.4-222.7 194.1-239.8 253.5-378 26.8 133.6-13.7 340.3-243.3 392.9-1.1.6-41.7 71.9-43.4 72.5 0-1.1-17.1-.6-14.8-6.3 1.1-3.6 3.3-8.1 5.6-12.7m56.6-98.8c-36-85.1 69.7-178.7 122.2-202.1C208.2 254.6 189.9 326 193.4 360.8M134 405.9c29.1-33.7-5.1-91.4-25.7-110.2 34.8 60 32.5 94.8 25.7 110.2" style="fill:#17541f" transform="translate(-15.306 -14.379)scale(1.10017)"/></svg>