<?xml version="1.0" standalone="no"?>
<!DOCTYPE svg PUBLIC "-//W3C//DTD SVG 20010904//EN"
 "http://www.w3.org/TR/2001/REC-SVG-20010904/DTD/svg10.dtd">
<svg version="1.0" xmlns="http://www.w3.org/2000/svg"
 width="200.000000pt" height="96.000000pt" viewBox="0 0 200.000000 96.000000"
 preserveAspectRatio="xMidYMid meet">
<metadata>
Created by potrace 1.16, written by Peter Selinger 2001-2019
</metadata>
<g transform="translate(0.000000,96.000000) scale(0.100000,-0.100000)"
fill="#000000" stroke="none">
<path d="M363 945 c-85 -23 -153 -64 -220 -131 -192 -191 -188 -482 9 -677 37
-37 72 -67 76 -67 8 0 26 149 19 156 -2 2 -17 -2 -35 -8 -39 -15 -46 -8 -31
26 11 23 8 34 -22 93 -29 56 -34 77 -33 127 6 206 193 382 386 362 164 -17
290 -152 305 -325 7 -82 -7 -146 -44 -202 -23 -34 -24 -43 -14 -66 15 -33 8
-40 -24 -23 -14 7 -27 11 -29 9 -3 -2 -2 -39 1 -81 l6 -77 29 17 c16 9 53 42
83 73 185 193 178 489 -16 674 -119 114 -294 161 -446 120z"/>
<path d="M461 542 c18 -29 3 -71 -28 -78 -14 -4 -34 -2 -44 4 -25 16 -30 2
-18 -42 11 -40 57 -76 97 -76 64 0 119 64 108 126 -8 41 -57 84 -97 84 -26 0
-28 -2 -18 -18z"/>
<path d="M317 233 c-3 -10 -11 -55 -17 -101 -10 -62 -10 -86 -1 -95 8 -8 11 0
11 31 0 32 4 42 16 42 13 0 15 -9 12 -45 -2 -35 0 -45 12 -45 12 0 15 19 15
110 0 60 -3 110 -7 110 -3 0 -13 3 -21 6 -9 3 -17 -2 -20 -13z"/>
<path d="M457 237 c-13 -9 -20 -36 -27 -102 -15 -141 -16 -135 30 -135 l40 0
0 125 c0 131 -4 141 -43 112z"/>
<path d="M570 167 c0 -35 -3 -85 -6 -111 -6 -38 -4 -46 10 -46 12 0 16 9 16
35 0 29 4 35 21 35 18 0 21 -5 17 -29 -3 -21 -1 -28 9 -24 13 5 13 19 -3 151
-3 26 -10 42 -19 42 -7 0 -20 3 -29 6 -14 5 -16 -4 -16 -59z"/>
</g>
</svg>
