<svg height="48pt" viewBox="0 0 48 48" width="48pt" xmlns="http://www.w3.org/2000/svg" xmlns:xlink="http://www.w3.org/1999/xlink"><linearGradient id="a" gradientTransform="matrix(15.597 0 0 15.107 16.201 19.446)" gradientUnits="userSpaceOnUse" x1="-.000038" x2=".999962" y1=".5" y2=".5"><stop offset="0" stop-color="#00c6ff"/><stop offset=".98695652174" stop-color="#0072ff"/></linearGradient><linearGradient id="b" gradientUnits="userSpaceOnUse" x1="18.858482" x2="46.149314" y1="30.593959" y2="2.141663"><stop offset="0" stop-color="#d300dc"/><stop offset="1" stop-color="#8700ff"/></linearGradient><path d="m24.001 19.446c-2.064 0-8.709 11.668-7.695 13.638s14.388 1.949 15.39 0c1.002-1.948-5.631-13.637-7.695-13.638z" fill="url(#a)"/><path d="m24.003.5c-6.22 0-26.241 36.299-23.188 42.429 3.052 6.13 43.357 6.059 46.377 0 3.019-6.059-16.97-42.429-23.189-42.429zm15.196 37.11c-1.978 3.972-28.385 4.016-30.386 0-2.002-4.017 11.118-27.801 15.193-27.801s17.172 23.828 15.193 27.801z" fill="url(#b)"/></svg>